<?xml version="1.0" standalone="no"?>
<!DOCTYPE svg PUBLIC "-//W3C//DTD SVG 1.1//EN" "http://www.w3.org/Graphics/SVG/1.1/DTD/svg11.dtd" >
<svg xmlns="http://www.w3.org/2000/svg">
<metadata></metadata>
<defs>
<font id="kingthings_calligraphica_2Rg" horiz-adv-x="775" >
<font-face units-per-em="2048" ascent="1638" descent="-410" />
<missing-glyph horiz-adv-x="372" />
<glyph horiz-adv-x="2048" />
<glyph horiz-adv-x="2048" />
<glyph unicode="&#xd;" horiz-adv-x="390" />
<glyph unicode=" "  horiz-adv-x="372" />
<glyph unicode="&#x09;" horiz-adv-x="372" />
<glyph unicode="&#xa0;" horiz-adv-x="372" />
<glyph unicode="!" horiz-adv-x="320" d="M65 1204v-978l205 146l1 968zM75 125l1 -236l195 108v240z" />
<glyph unicode="&#x22;" horiz-adv-x="535" d="M528 1094q-73 63 -70.5 128t48.5 101l-27 27q-124 -90 -159.5 -138.5t-35.5 -112.5t32 -100t71 -39zM268 1094q-73 63 -70.5 128t48.5 101l-27 27q-124 -90 -159.5 -138.5t-35.5 -112.5t32 -100t71 -39z" />
<glyph unicode="#" horiz-adv-x="846" d="M71 677l-51 -116h184l-66 -284l119 48l56 236h145l-66 -284l122 52l53 232h128l47 116h-149l37 181h134l47 116h-155l60 277l-118 -48l-50 -229l-146 -1l59 278l-123 -47l-45 -231h-153l-51 -115h178l-37 -181h-159zM521 858l-37 -181h-145l36 181h146z" />
<glyph unicode="$" horiz-adv-x="700" d="M280 214l-4 2q-69 35 -105 77t-1 97l-12 16l-135 -134q-18 -52 35.5 -123.5t127.5 -107.5q44 -22 94 -33l-1 -340l125 -69v403q55 9 95 45q59 51 122 150.5t60 169.5t-55 131q-51 59 -223 100v168l6 -2q84 -37 21 -125l16 -3l151 158q-34 64 -98 95q-45 22 -96 20v406 l-120 76l-1 -513q-31 -13 -61 -32q-66 -42 -103 -83.5t-47.5 -127.5t46.5 -147q46 -50 164 -87zM281 634q-78 31 -88 71q-17 61 58 79q15 3 31 4zM404 368q111 -33 139 -64q35 -40 24.5 -79t-43 -52.5t-106.5 -2.5l-14 2v196z" />
<glyph unicode="%" horiz-adv-x="899" d="M554.5 361.5q-63.5 -63.5 -75 -163.5t57 -180.5t119.5 -87t90 29.5t90 123.5t42 165.5t-64 132t-96.5 63t-70.5 -5t-92.5 -77.5zM713.5 300q62.5 -62 77.5 -129.5t-9.5 -97.5t-79 -19t-100.5 92.5t-46 130t47.5 67t110 -43.5zM114.5 891.5q-63.5 -63.5 -75 -163.5 t57 -180.5t119.5 -87t90 29.5t90 123.5t42 165.5t-64 132t-96.5 63t-70.5 -5t-92.5 -77.5zM273.5 830q62.5 -62 77.5 -129.5t-9.5 -97.5t-79 -19t-100.5 92.5t-46 130t47.5 67t110 -43.5zM151 -217l124 63l489 1276l-125 -80z" />
<glyph unicode="&#x26;" horiz-adv-x="1262" d="M295 1240q-135 -81 -154 -215t30 -207.5t81 -109.5q-315 -299 -181.5 -497.5t299.5 -215.5t336 223q203 -187 326 -231q131 90 237 347l-31 20q-28 -61 -75 -90q-145 40 -295 164l337 441l-29 35l-315 1l-184 -263l39 -30l65 86h233l-191 -227q-346 325 -461.5 474.5 t-53.5 226t142 18t106.5 -171t-63.5 -166.5l36 -20q110 56 177.5 164t14 212.5t-172 108.5t-253.5 -77zM669 256q-38 -58 -130.5 -69.5t-246 142.5t-11.5 345q189 -248 388 -418z" />
<glyph unicode="'" horiz-adv-x="246" d="M1 1217q73 -63 70.5 -128t-48.5 -101l27 -27q124 90 159.5 138.5t35.5 112.5t-32 100t-71 39z" />
<glyph unicode="(" horiz-adv-x="427" d="M124.5 1201q-74.5 -248 -94 -487.5t37 -539.5t190.5 -537l175 118q-432 815 -107 1872l-22 20q-105 -198 -179.5 -446z" />
<glyph unicode=")" horiz-adv-x="413" d="M245 78.5q86 244.5 117 483t-11 540.5t-165 545l-180 -109q392 -835 17 -1875l21 -21q115 192 201 436.5z" />
<glyph unicode="*" horiz-adv-x="504" d="M150 1340h-104l115 -123h-91l-68 -73h168l-125 -133h104l68 72v-164l73 68v93l63 -67h106l-124 131h104l65 73h-160l114 121h-106l-62 -66v169l-73 -65v-107z" />
<glyph unicode="+" horiz-adv-x="795" d="M314 768v-171h-160l-126 -179l278 2v-344l171 172v172h165l142 180h-311l1 316z" />
<glyph unicode="," horiz-adv-x="298" d="M16 153q78 -67 75 -136.5t-52 -107.5l29 -29q132 96 170 147.5t38 120t-34 107t-76 41.5z" />
<glyph unicode="-" d="M571 640h-333q-158 -13 -222 -231l16 -13q49 76 143 72h396q113 21 186 247l-9 16q-81 -94 -177 -91z" />
<glyph unicode="." horiz-adv-x="326" d="M17 131q109 -19 115 -160l187 149q6 132 -120 178z" />
<glyph unicode="/" horiz-adv-x="446" d="M-98 -412l124 83l504 1985l-138 -97z" />
<glyph unicode="0" horiz-adv-x="837" d="M187.5 748q-122.5 -112 -145 -288.5t103 -318t225 -152.5t181 52t179.5 217.5t80.5 291.5t-123 232.5t-186.5 111t-136.5 -9t-178 -136.5zM544 673.5q116 -99.5 131 -274t-55 -231.5t-178.5 -18t-201 185t-75.5 278t140 146t239 -85.5z" />
<glyph unicode="1" horiz-adv-x="494" d="M45 669l19 -35l101 65v-399q11 -139 -142 -285l14 -19h273l159 116l-16 23q-127 0 -244 -1q129 58 140 155v593l-14 18z" />
<glyph unicode="2" horiz-adv-x="688" d="M325 871.5q-145 -40.5 -225.5 -127.5t-71.5 -179.5t71 -146.5l202 182l-13 15q-57 -25 -81 41.5t-1 108t95 36.5t116 -163.5t-53 -264.5l-312 -348l23 -25h488l118 201l-29 9l-36 -54h-357q274 275 340.5 410.5t-31.5 240.5t-243 64.5z" />
<glyph unicode="3" horiz-adv-x="692" d="M181 895l-165 -241l19 -24q65 80 121 60l275 7l-294 -275l33 -38q165 155 270 -51t-54 -435l-229 -262l47 -22q311 309 405 466t51 332.5t-245 200.5l248 258l-31 24h-451z" />
<glyph unicode="4" horiz-adv-x="930" d="M18 62l400 2q36 -388 -64 -420l19 -36q183 128 222 214l2 247h166q58 65 163 241l-48 22q-30 -83 -137 -79l-148 -1l1 337l-173 -119v-213h-197q206 263 264 675l-240 -191q54 -199 -230 -679z" />
<glyph unicode="5" horiz-adv-x="698" d="M26 325l21 -26q55 79 203 69t209.5 -135t-44.5 -326l-208 -287l32 -30q310 337 361 430t63.5 203t-57 200.5t-149.5 113.5t-149 21t-165 -53l56 198h345l119 172l-9 19h-447z" />
<glyph unicode="6" horiz-adv-x="838" d="M167.5 904.5q-68.5 -109.5 -111 -245t-14 -291t160.5 -280.5t260 -81.5t247.5 199t96.5 313t-138.5 243.5t-231 57.5t-244.5 -235.5q-9 193 72 325t165.5 178.5t183.5 12.5l108 206q-264 -84 -375 -188t-179.5 -213.5zM580 514q67 -119 57 -238t-97 -120 q-258 45 -333 359q71 142 188.5 130t184.5 -131z" />
<glyph unicode="7" horiz-adv-x="677" d="M24 637l35 -6q55 68 121 67l338 -2l-206 -456q-120 -220 -116.5 -330t41.5 -180.5t119 -134.5l144 250q-174 82 -110 355l273 672l-20 25l-476 -1z" />
<glyph unicode="8" horiz-adv-x="711" d="M227 853.5q-62 -42.5 -96 -85t-48 -129t41 -148.5t220 -104t198.5 -81.5t21.5 -79t-45 -53t-106.5 -2.5t-148 45.5t-105 86t48.5 118.5l-35 18q-172 -130 -138 -238t135 -159t179.5 -49t139.5 54t128 152t66.5 170.5t-50.5 132t-230.5 103.5t-194.5 104t61 79.5 t173.5 -37t-1.5 -148.5l42 -10q128 78 133 151t-76.5 127.5t-166 39.5t-146.5 -57.5z" />
<glyph unicode="9" horiz-adv-x="855" d="M682.5 7.5q68.5 109.5 111 245t14 291t-160.5 280.5t-260 81.5t-247.5 -199t-96.5 -313t138.5 -243.5t231 -57.5t244.5 235.5q9 -193 -72 -325t-165.5 -178.5t-183.5 -12.5l-108 -206q264 84 375 188t179.5 213.5zM270 398q-67 119 -57 238t97 120q258 -45 333 -359 q-71 -142 -188.5 -130t-184.5 131z" />
<glyph unicode=":" horiz-adv-x="352" d="M26 471q109 -19 115 -160l187 149q6 132 -120 178zM26 131q109 -19 115 -160l187 149q6 132 -120 178z" />
<glyph unicode=";" horiz-adv-x="315" d="M4 471q109 -19 115 -160l187 149q6 132 -120 178zM52 153q78 -67 75 -136.5t-52 -107.5l29 -29q132 96 170 147.5t38 120t-34 107t-76 41.5z" />
<glyph unicode="&#x3c;" horiz-adv-x="654" d="M586 229q-112 222 -385 304l433 260l-28 38l-579 -347l-1 -35q306 -111 452 -362z" />
<glyph unicode="=" horiz-adv-x="819" d="M613 700h-348q-165 -13 -232 -231l16 -13q52 76 150 72h413q118 21 195 247l-10 16q-85 -94 -184 -91zM613 490h-348q-165 -13 -232 -231l16 -13q52 76 150 72h413q118 21 195 247l-10 16q-85 -94 -184 -91z" />
<glyph unicode="&#x3e;" horiz-adv-x="644" d="M74 689q112 -222 385 -304l-433 -260l28 -38l579 347l1 35q-306 111 -452 362z" />
<glyph unicode="?" horiz-adv-x="840" d="M326 83l1 -236l195 148v233zM518 604q269 193 291 410.5t-162 314t-438 -47.5t-129 -479l209 100q-75 173 -31.5 271.5t160 62.5t159 -183t11.5 -253.5t-257 -231.5l-1 -381l188 119v298z" />
<glyph unicode="@" horiz-adv-x="1274" d="M403.5 1041q-108.5 -85 -213.5 -226t-133.5 -282.5t21 -282t187 -255t293.5 -99t348 244.5l-46 26q-146 -202 -349.5 -74t-261.5 328t25 349.5t219 209.5t267 38.5t198 -92t98 -240.5t-41.5 -247.5t-123 0.5t-42.5 480l-271 3q-213 -168 -241.5 -332t65 -271.5t162.5 -76 t151 124.5q35 -127 173 -122q317 172 354.5 364.5t-42 339.5t-235 201.5t-304.5 15t-257.5 -124.5zM677 760q-13 -273 17 -330q-156 -41 -196 96.5t24 233.5h155z" />
<glyph unicode="A" horiz-adv-x="1308" d="M545.5 1293.5q-13.5 -90.5 35.5 -168.5q-48 -46 -70 -110l-150 -353h-151l-124 -209l39 -27l40 55h130q-63 -169 -285 -482l299 1l155 232l-232 6q111 43 180 243h233l128 146l197 -485q61 -136 185 -148l162 283l-41 27l-70 -106q-60 7 -87 74l-406 1055q-38 83 48 190 l-14 27q-188 -160 -201.5 -250.5zM765 657h-296l154 375z" />
<glyph unicode="B" horiz-adv-x="1052" d="M159 1327l-167 -220l35 -21l55 51l205 1l-72 -42q16 -897 -31 -939l-103 -134l16 -24l538 -1q88 69 247 247q180 153 162.5 298t-121.5 203.5t-239 46.5q180 118 181 308.5t-261 224.5zM700 1028q27 -152 -81 -222l-211 3l-2 344q267 27 294 -125zM822 543.5 q66 -65.5 32.5 -185t-97.5 -146.5h-488l135 94v302l228 -1q124 2 190 -63.5z" />
<glyph unicode="C" horiz-adv-x="994" d="M372 1206q-132 -117 -191 -199t-112 -198.5t-26 -287.5t217.5 -359.5t413.5 -173.5l228 269l-30 23l-78 -82q-170 -25 -309 70.5t-226 267.5t-23 405q58 210 256 200q317 -25 260 -230l17 -8q192 175 197 225t-69.5 124t-149 83.5t-159 -1.5t-216.5 -128z" />
<glyph unicode="D" horiz-adv-x="1124" d="M3 1054l34 -14l60 74l245 4q-133 -134 -139 -225l-2 -585q8 -72 -185 -290l9 -23l519 -10q113 28 171 78.5t125.5 119.5t178.5 211t85.5 368t-208 402t-455.5 161l-264 -2zM693.5 1015.5q141.5 -110.5 214 -293.5t12.5 -327t-134 -184l-562 -2q127 150 140 251l4 560 q-21 96 58 104q126 2 267.5 -108.5z" />
<glyph unicode="E" horiz-adv-x="931" d="M1 1048l34 -14q60 73 132 73l173 -1q-129 -52 -139 -162l-1 -142l-141 -202l15 -22l127 67l-2 -338q8 -72 -147 -312l670 1l205 293l-50 3q-63 -82 -146 -81l-484 1q76 22 135 165l1 257h117l173 174l-16 26h-268v277h323l180 190l-6 20l-711 -2z" />
<glyph unicode="F" horiz-adv-x="886" d="M14 1051l34 -14q32 70 102 73l203 -1l-139 -162l-1 -142l-141 -203l15 -22q87 67 126 52l2 -341q8 -86 -178 -303l28 -15q43 43 323 23l165 185l-290 2q70 43 133 114v339h117l173 175l-16 24l-268 1v278l393 2l180 189l-6 20l-781 -2z" />
<glyph unicode="G" horiz-adv-x="1109" d="M398.5 1210q-137.5 -117 -198.5 -199t-116.5 -199t-32.5 -283.5t185 -351t404 -189.5l151 119l1 -115l30 -12l158 164q-21 425 28 468l86 139l-17 25l-362 1l-201 -242l13 -16q79 60 142 69l241 2q-100 -27 -115 -206v-198q-186 30 -320 115t-193.5 247.5t-24.5 395.5 q61 211 267 202q278 -26 218 -232l18 -7q200 176 205 226t-72.5 124t-144.5 83.5t-139.5 -2t-210 -128.5z" />
<glyph unicode="H" horiz-adv-x="1168" d="M40 1054l34 -14q32 71 102 74l183 -1q-99 -71 -120 -113v-223l-47 -2l-184 -253l15 -22q110 108 216 93l-1 -301q8 -86 -175 -325l25 -4q54 40 323 34l165 187h-300q90 43 123 106l3 307h337l81 108l1 -413q8 -86 -178 -325l28 -4q54 40 323 34l165 187h-300 q90 43 142 116v820l170 189l-6 20l-371 -2l-174 -273l34 -14q32 71 102 74l183 -1q-100 -72 -124 -108l-1 -207h-406v320l3 2l180 189l-6 20l-371 -2z" />
<glyph unicode="I" horiz-adv-x="555" d="M13 1052l34 -14q32 70 102 73l183 -1q-145 -101 -150 -203l-1 -555l1 -124q-27 -108 -166 -261l25 -4q54 40 323 34l165 194l-24 19q-49 -36 -276 -27q70 23 153 124l9 808l3 2l150 189l-6 20l-351 -2z" />
<glyph unicode="J" horiz-adv-x="1049" d="M117 1061l41 -19l62 87h488l-90 -65v-593q1 -244 -35.5 -287.5t-186.5 1.5q-295 175 -151 422l-14 18l-109 -104q-111 -98 -87 -255q82 -153 219 -236q178 -103 305 30q191 138 253 401v674l138 2l166 185h-812z" />
<glyph unicode="K" horiz-adv-x="1141" d="M6 1054l34 -14q32 71 102 74l183 -1q-99 -71 -130 -133l-1 -627l1 -125q-27 -108 -176 -261l35 -4q14 40 323 34l165 195l-24 18q-49 -36 -276 -26q116 42 131 116l1 313q17 29 53 30t103 -54t113 -155.5t120.5 -242t187.5 -207.5l206 188l-25 25q-54 -56 -89 -23 q-61 65 -101 145.5t-94 195.5t-118 183t-189 97l506 512l4 20h-344l-188 -232l15 -17q73 44 128 45l142 1l-428 -420l1 416l180 189l-6 20l-371 -2z" />
<glyph unicode="L" horiz-adv-x="917" d="M1 1048l34 -14q32 70 102 73l183 -1q-99 -70 -130 -182l-1 -573l-9 -124q-27 -108 -166 -260l25 -4q54 40 713 33l165 235l-24 18q-46 -68 -166 -66l-500 -1q70 74 133 226l9 703l3 2l180 188l-6 20l-371 -2z" />
<glyph unicode="M" horiz-adv-x="1513" d="M1393 1122l161 156q-61 40 -106 54t-119.5 -7.5t-179.5 -131.5l-384 -423q-411 584 -480.5 567.5t-275.5 -239.5l31 -22q136 118 258 -3q-129 -74 -123 -123v-727q-19 -106 -154 -256l25 -4q53 40 322 33l161 191l-25 18q-48 -35 -275 -26q118 73 137 112l2 708l318 -469 q76 -77 12 -183l22 -26l118 144q80 112 -32 235l314 363l1 -840q-33 -106 -168 -256l25 -4q53 40 322 33l161 191l-25 18q-48 -35 -275 -26q78 63 148 102v913q-5 86 84 -72z" />
<glyph unicode="N" horiz-adv-x="1190" d="M277.5 1341q-69.5 -16 -276.5 -238l32 -21q135 117 218 -3q-90 -113 -84 -162l1 -682q-33 -106 -169 -254l25 -4q53 40 314 23l161 190l-24 17q-48 -35 -258 -16q81 33 121 111l-2 664l492 -802q-32 -73 -154 -188l26 -4q52 41 291 24l161 194l-24 18q-48 -36 -214 -13 q67 41 87 112l2 823l3 2l176 188l-7 20l-371 -2l-168 -271l34 -15q31 70 102 73h182q-99 -42 -107 -101v-533q-500 866 -569.5 850z" />
<glyph unicode="O" horiz-adv-x="1046" d="M226.5 1118.5q-154.5 -167.5 -183 -431.5t130 -475.5t284.5 -228t228.5 77.5t226.5 325.5t102 436.5t-155.5 347.5t-235.5 166t-172.5 -13.5t-225 -204.5zM677 1007.5q146 -149.5 165 -410.5t-69 -346.5t-225.5 -27.5t-254 277t-95 417t177 219t301.5 -128.5zM356 689 q109 -20 115 -165l187 153q6 136 -120 183z" />
<glyph unicode="P" horiz-adv-x="946" d="M378 273v166q238 -50 384 136.5t160 362.5t-119 292.5t-281 96.5h-346l-110 -173l-59 -74l30 -34l80 94l215 -1q-124 -73 -130 -129l-1 -725q-38 -187 -202 -288l14 -30q71 39 359 28l148 199q-59 -29 -279 -22q111 51 137 101zM374 638l-4 504q187 13 280 -53.5 t133.5 -227.5t-76 -231.5t-293.5 62.5z" />
<glyph unicode="Q" horiz-adv-x="1073" d="M827 336q30 95 18 258q-19 261 -165 410t-301.5 128t-177 -218.5t95 -416t253.5 -276.5q63 -26 115 -23q-56 94 -91 102q-42 11 -95 -25l-11 29q185 164 252 140q50 -19 107 -108zM724 89q-14 -17 -28 -30q-95 -94 -233.5 -82t-291.5 228t-124.5 479.5t183 430.5t225 204 t172.5 13.5t235.5 -165.5t155.5 -347t-102 -436q-30 -55 -58 -102l10 -20q81 -156 142 -272t103.5 -159.5t96.5 16.5l29 -37q-178 -158 -235 -141t-146 177q-71 127 -134 243z" />
<glyph unicode="R" horiz-adv-x="1105" d="M-4 1052l34 -14q32 70 102 77h223q-129 -35 -160 -117l-1 -646l1 -124q-27 -108 -152 -234l11 -31q84 40 353 34l165 194l-24 19q-49 -36 -276 -27q96 72 131 146l1 322q85 2 130.5 -28.5t80 -91.5t66.5 -148t95 -207t160 -198l241 194l-25 24q-54 -56 -89 -22 q-61 64 -96 144.5t-75 174.5t-105.5 157t-166.5 47q148 27 226.5 142.5t30.5 284t-217 192.5l-107 8h-383zM614 1085q70 -44 81 -143t-33 -160.5t-260 -59.5v395q142 12 212 -32z" />
<glyph unicode="S" horiz-adv-x="949" d="M228 1175.5q-80 -102.5 -95 -216.5t64.5 -197t308.5 -188.5t270.5 -179.5t-12 -143t-157.5 -57.5t-209.5 77t-159 135t-7.5 178.5l-15 17l-177 -207q-25 -79 49.5 -187t171 -165t212 -61.5t222 89t176 212t54.5 245t-80.5 177t-323 172t-252.5 212.5t129 101t194 -65 t-4 -170l27 -24l202 244q-49 96 -138 143t-229.5 4t-220.5 -145.5z" />
<glyph unicode="T" horiz-adv-x="1119" d="M-9 1050l34 -14q32 70 102 73l443 -1q-119 -70 -150 -222l-1 -534l1 -125q-57 -107 -196 -260l25 -4q31 53 353 34l165 194l-24 18q-49 -35 -276 -26q70 74 163 226l-1 698l342 1l191 196l-16 18h-981z" />
<glyph unicode="U" horiz-adv-x="1178" d="M838 240q49 -191 163 -242l196 373l-27 31q-126 -154 -134 98v626l45 1l140 177l-6 20l-371 -2l-164 -247l34 -15q28 69 92 69l175 -1q-91 -39 -145 -113v-652q-75 -195 -144 -166q-134 50 -238 176.5t-154 257.5t-50.5 232.5t148.5 278.5l154 183h-308l-8 -16l-177 -243 l24 -14q48 63 129 65l120 1q-335 -346 -191 -693q121 -275 381 -425q111 -22 218.5 106t97.5 134z" />
<glyph unicode="V" horiz-adv-x="1159" d="M201 1273l-212 -310l32 -28q89 130 132 27l369 -909q69 -98 171 -38q411 521 435 725.5t-101.5 404t-251 185.5t-226 -125.5t-163.5 -191.5l-103 264q-35 101 -82 -4zM875 944.5q96 -201.5 71.5 -385.5t-183.5 -344q-77 -23 -356 747q99 129 235.5 156.5t232.5 -174z" />
<glyph unicode="W" horiz-adv-x="1548" d="M1108.5 1143.5q94.5 -25.5 165 -200.5t59 -372t-162.5 -329q-100 44 -332 725l-20 51l-102 267q-29 92 -95 -16l-228 -272l-105 288q-35 100 -86 -5l-202 -311l31 -30q84 132 125 28l319 -852q78 -220 232 -38l138 144l-26 60l-79 -80q-80 -16 -328 738q135 132 176 28 l341 -884q85 -175 209 -6q359 462 381.5 667.5t-97 406t-239.5 186.5t-309 -289l22 -44q118 165 212.5 139.5z" />
<glyph unicode="X" horiz-adv-x="1070" d="M14 1044l26 -41q141 217 279 -146l79 -152q-298 -290 -313 -430t63 -217t179 -63l232 320l-18 26q-162 -157 -253.5 -43t158.5 310l269 -481q93 -132 198 -132l161 252l-26 33q-70 -220 -430 485l410 519l-20 45h-322l-190 -226l20 -26q88 66 275 43l-212 -257l-216 413 q-62 146 -237 -91z" />
<glyph unicode="Y" horiz-adv-x="971" d="M521 1117l18 -21q59 54 261 35l-196 -311l-286 422q-79 155 -183 18l-133 -136l29 -28q69 65 102 40l304 -472l1 -366q-7 -95 -205 -301l401 2l186 211l-32 23q-34 -81 -339 -55q185 126 199 266l-1 323l371 552l-16 7l-297 -2z" />
<glyph unicode="Z" horiz-adv-x="927" d="M282 1322l-186 -277l42 -17q50 72 152 106h464l-749 -1106l30 -33q141 200 411.5 84t330 -60.5t109 146t104.5 171.5l-31 24q-48 -102 -111 -127.5t-260 50.5t-287 51l653 954l-17 33z" />
<glyph unicode="[" horiz-adv-x="515" d="M74 1346l-1 -1725l387 -1l110 162l-340 1v1703l229 1l120 155h-249z" />
<glyph unicode="\" horiz-adv-x="472" d="M516 -253l-80 -146l-476 1938l80 110z" />
<glyph unicode="]" horiz-adv-x="570" d="M503 -219l-178 -161h-335l100 158l240 -2v1706l-329 1l100 157h402v-1859z" />
<glyph unicode="^" horiz-adv-x="518" d="M400 1018q-139 6 -183 153l-150 -121l-35 39l271 239q76 -160 208 -178z" />
<glyph unicode="_" horiz-adv-x="976" d="M730 -269h-438q-208 -8 -292 -137l21 -8q65 45 188 43h521q149 12 245 146l-12 10q-106 -56 -233 -54z" />
<glyph unicode="`" horiz-adv-x="415" d="M256 1026l152 140q-127 -10 -273 181l-129 -109q162 -214 250 -212z" />
<glyph unicode="a" horiz-adv-x="852" d="M161 674q-111 -153 -119 -261t106 -257t176 -157q113 94 183 153q27 -107 157 -160l197 239l-33 23l-43 -47q-51 -23 -83 17t-29 99v481q3 73 54 97l-334 -1q-121 -73 -232 -226zM520 742l-35 -68v-37v-429q-88 -69 -216 118t8 416h243z" />
<glyph unicode="b" horiz-adv-x="721" d="M296 1401q-124 -78 -185 -167t-72 -224l4 -669q13 -114 44.5 -179t79.5 -108t124.5 -61.5t291.5 289.5q143 219 106 382t-166.5 226.5t-289.5 -176.5l2 402q-10 168 83 274zM491 532.5q44 -154.5 -18 -320.5q-73 -43 -149.5 14t-88.5 188l-2 228q41 57 127.5 51 t130.5 -160.5z" />
<glyph unicode="c" horiz-adv-x="708" d="M209 753q-232 -222 -165 -408.5t162 -275t170 -70.5q151 116 292 301l-25 22q-84 -96 -169 -124q-99 18 -182 149t-80 249t59.5 134t121.5 -22t79 -148l165 143q17 96 -57 150t-165 45q-93 -38 -206 -145z" />
<glyph unicode="d" horiz-adv-x="839" d="M506 1113v-215h-208q-238 -348 -256 -442t10 -175t132 -198.5t156 -73.5l170 153q45 -163 148 -162l140 175l49 55l-30 34l-70 -75q-55 16 -54 243v672q-10 222 87 284l-28 17q-231 -95 -246 -292zM510 797v-575q-109 -37 -204 98.5t-103 227t41 138.5h184z" />
<glyph unicode="e" horiz-adv-x="708" d="M224 753q-232 -222 -165 -408.5t177.5 -290.5t195.5 -32q130 93 271 278l-25 22q-84 -96 -154 -139q-95 -20 -192.5 127.5t-113 277.5t66 150t123 -34.5t24 -109t-88.5 -105.5l-73 -56l29 -42l251 201l82 71q17 136 -57 190t-165 45q-93 -38 -186 -145z" />
<glyph unicode="f" horiz-adv-x="591" d="M255 1220q-73 -42 -64 -335l-79 -8l-125 -199l19 -16q79 46 202 43l2 -729q7 -183 -54 -215t-190 84l-138 -212q314 -15 441.5 158.5t135.5 373.5l-13 549h87l155 189l-247 2q-11 313 17 365q153 13 137 -143l143 120q46 55 16 121.5t-181 105.5z" />
<glyph unicode="g" horiz-adv-x="796" d="M162 674q-113 -153 -126.5 -261t103 -262t179.5 -162q125 104 186 163q18 -332 5 -379q-65 -24 -167 27.5t-165 135.5l-145 -183q122 -125 216 -143.5t160 7t193.5 173t113.5 311t-10.5 449t75.5 329.5l-11 22l-370 -1q-124 -73 -237 -226zM571 711q-69 -68 -70 -149 v-350q-86 -61 -204 99.5t-55 400.5z" />
<glyph unicode="h" horiz-adv-x="792" d="M50 1070l1 -492v-410q3 -148 119 -168l189 186l-20 20l-58 -49q-40 17 -36 150v375l74 62q172 5 174 -205l-1 -367q-1 -146 112 -168l190 184l-20 26l-58 -54q-35 5 -34 118l1 397q-3 135 -86.5 191t-171.5 41l-189 -178v396q-7 214 73 274l-16 19q-245 -127 -243 -348z " />
<glyph unicode="i" horiz-adv-x="497" d="M94 1131q109 -19 115 -160l187 149q6 132 -120 178zM45 710l20 -37l60 44q53 1 41 -151v-406q12 -147 124 -166l197 192l-23 23l-56 -50q-55 3 -48 154l-1 423q-2 157 -68 176z" />
<glyph unicode="j" horiz-adv-x="409" d="M55 1131q109 -19 125 -160l177 149q6 132 -120 178zM26 710l24 -39q98 88 97 -105v-406q7 -314 -115 -467l15 -31q281 171 285 486l-2 588q-2 157 -78 176z" />
<glyph unicode="k" horiz-adv-x="874" d="M64 968v-785q9 -135 125 -189l222 191l-26 27q-148 -135 -115 213q38 32 87.5 0t150.5 -233t174 -201l194 220l-30 26q-85 -123 -176.5 86.5t-200.5 220.5q61 33 151.5 123.5t49.5 232.5l-225 -144q42 -127 -23.5 -173t-164.5 -88v590q2 252 86 313l-29 17 q-263 -171 -250 -447z" />
<glyph unicode="l" horiz-adv-x="405" d="M55 1066v-856q14 -158 164 -216l197 192l-15 20q-102 -64 -153 32v478v391q-5 197 75 273l-18 22q-258 -172 -250 -336z" />
<glyph unicode="m" horiz-adv-x="1329" d="M7 713l24 -30l59 53q80 -4 72 -164v-410q3 -148 119 -168l189 186l-20 20l-58 -49q-40 17 -36 150v375l74 62q172 5 174 -205l-1 -367q-1 -146 112 -168l190 184l-20 26l-58 -54q-35 5 -34 118v395l72 71q158 -12 171 -205l-1 -367q-1 -146 113 -168l189 184l-25 20 l-44 -41q-46 5 -41 117v347q-2 247 -249 273l-198 -175q-47 162 -244 178l-189 -178q-21 160 -152 178z" />
<glyph unicode="n" horiz-adv-x="902" d="M6 713l24 -30l59 53q80 -4 72 -164v-410q3 -148 119 -168l189 186l-20 20l-58 -49q-40 17 -36 150v375l74 62q172 5 174 -205l-1 -367q-1 -146 112 -168l190 184l-20 26l-58 -54q-35 5 -34 118l1 397q-3 135 -86.5 191t-171.5 41l-189 -178q-21 160 -152 178z" />
<glyph unicode="o" horiz-adv-x="760" d="M161 750.5q-112 -112.5 -132.5 -289t100 -319t211 -153.5t159.5 52t158.5 218t73.5 293t-112.5 233.5t-170 111.5t-124.5 -9t-163 -137.5zM474.5 640q103.5 -107 116.5 -227t-36.5 -181t-147 -49.5t-178.5 163.5t-65.5 261t111.5 124.5t199.5 -91.5z" />
<glyph unicode="p" horiz-adv-x="875" d="M341 -101v185q109 -67 200.5 -2t199 213t103 290t-144.5 252t-192 66l-170 -153q-39 141 -148 162l-140 -175l-49 -55l30 -34l70 75q59 -2 65 -243l-1 -492q-3 -171 -142 -311l14 -15q71 24 146.5 -34t168.5 -46l153 191l-27 8q-109 -64 -284 54q82 1 148 64zM337 285 v391l74 62q66 18 152 -65.5t113 -243.5t-83 -190t-216 101z" />
<glyph unicode="q" horiz-adv-x="820" d="M154 674q-106 -153 -114 -261t101.5 -262t168.5 -162q168 104 183 151l2 -487l379 288l-32 33l-147 -101l2 887q-6 86 57 111l-19 30h-299q-176 -74 -282 -227zM496 208q-67 -100 -196.5 82t-79.5 392h329q-61 -24 -51 -99z" />
<glyph unicode="r" horiz-adv-x="647" d="M-3 655l27 -20q64 85 102 66.5t32 -130.5v-406q20 -144 124 -166l197 192l-15 20q-102 -64 -104 32v392q7 116 59 121t109 -103l169 131q-65 100 -139 117.5t-125.5 -29.5t-86.5 -122q-17 129 -153 147z" />
<glyph unicode="s" horiz-adv-x="715" d="M233 859q-66 -43 -103 -85.5t-47.5 -130t46.5 -150.5t224 -105t202 -82.5t24.5 -80t-43 -53.5t-106.5 -2.5t-142.5 47t-104.5 78.5t-1 99l-12 16l-135 -137q-18 -53 35.5 -125.5t127 -110t164 -42t149.5 48t122 154t60 173t-55.5 133.5t-234.5 105t-198.5 105.5t58 80.5 t158.5 -20t21 -127l16 -3l151 161q-34 65 -98 96.5t-138 15.5t-140 -59z" />
<glyph unicode="t" horiz-adv-x="696" d="M295 1182q-92 -88 -100 -184l2 -95l-47 -2l-143 -245l34 -23q52 104 160 82l-1 -494q30 -158 189 -235l259 228l-35 47q-147 -175 -228 27v234v204h158l140 147l-10 28h-300v20v205q-3 58 72 133l-20 20q-38 -9 -130 -97z" />
<glyph unicode="u" horiz-adv-x="908" d="M906 183l-24 30l-59 -53q-80 4 -72 164v410q-3 148 -119 168l-189 -186l20 -20l58 49q48 -15 36 -150v-375l-93 -79q-157 12 -155 222l1 367q1 146 -112 168l-190 -184l20 -26l58 54q41 -5 34 -148l-1 -300q0 -150 83.5 -226t180.5 -81l183 186q21 -160 152 -178z" />
<glyph unicode="v" horiz-adv-x="914" d="M170 855l-165 -208l23 -35q79 94 104 34l297 -587q74 -131 165 1q279 299 297.5 436.5t-80 276.5t-192 134t-166 -98.5t-91.5 -114.5l34 -48q41 75 120 85t148.5 -112.5t60 -247t-102.5 -197.5q-56 9 -362 684q-55 72 -90 -3z" />
<glyph unicode="w" horiz-adv-x="1310" d="M1018 647q107 -139 103.5 -264t-87.5 -199q-71 17 -263 466l-18 35l-82 179q-58 63 -114 -6l-189 -188l-88 194q-56 72 -114 -3l-169 -210l26 -19q71 88 105 18l265 -549q75 -204 217 -25l130 122l-24 40l-77 -58q-58 -65 -255 452q101 88 135 18l290 -558 q75 -188 181 -23q290 292 309 431t-84 278t-195.5 130t-255.5 -211l18 -37q129 126 236 -13z" />
<glyph unicode="x" horiz-adv-x="872" d="M9 651l33 -28q68 103 126 35l124 -188q-230 -190 -242 -285t51.5 -147t146.5 -42l190 216l-14 18q-133 -106 -208 -29t104 222l220 -338q76 -89 161 -89l158 170l-21 23q-83 -149 -338 299l332 371l-21 40l-239 -1l-164 -173l16 -17q31 40 235 25l-185 -200l-185 300 q-50 124 -124 10z" />
<glyph unicode="y" horiz-adv-x="862" d="M550.5 -293q228.5 175 262.5 396v637q-20 146 -124 168l-217 -214l23 -32l64 61q59 5 52 -142v-317q-53 -84 -147 -75t-111 179l1 368q1 146 -117 168l-227 -224l20 -37l62 59q60 30 62 -106v-321q15 -215 231 -287q137 77 235 189v-115q15 -277 -124 -276.5t-245 130.5 l-165 -186q236 -198 464.5 -23z" />
<glyph unicode="z" horiz-adv-x="592" d="M-5 648l14 -17q56 95 186 87h226q-368 -544 -426 -701l17 -18q49 61 230 17t245 15.5t150 277.5l-23 15q-68 -167 -436 -74l408 624l-15 26h-442z" />
<glyph unicode="{" horiz-adv-x="379" d="M109 1125v-271q2 -157 -95 -292q97 -153 95 -282q11 -583 125 -660l120 257l-11 27q-67 -85 -87 301v171q-17 149 -115 197q110 70 115 277v330q-3 332 58 434l-14 29q-197 -230 -191 -518z" />
<glyph unicode="|" horiz-adv-x="410" d="M296 1610l-1 -1707q-34 -163 -229 -316l-35 33q87 68 79 176v1706q12 111 243 336l29 -34q-86 -110 -86 -194z" />
<glyph unicode="}" horiz-adv-x="378" d="M247 137v271q-2 157 95 292q-97 153 -95 282q-11 583 -125 660l-120 -257l11 -27q67 85 87 -301v-171q17 -149 115 -197q-110 -70 -115 -277v-330q3 -332 -58 -434l14 -29q197 230 191 518z" />
<glyph unicode="~" horiz-adv-x="896" d="M181 1144l-151 -145l40 -32l85 71q124 60 292.5 -26t251.5 15l172 166l-35 32l-71 -67q-103 -55 -277 35t-307 -49z" />
<glyph unicode="&#xa1;" horiz-adv-x="385" d="M301 -286v978l-205 -146l-1 -968zM291 793l-1 236l-195 -108v-240z" />
<glyph unicode="&#xa2;" horiz-adv-x="687" d="M311 -332l125 -69v429q131 93 232 272l-25 22q-84 -96 -169 -124q-20 -11 -38 -16l-1 486q28 -40 37 -108l165 143q17 96 -57 150q-66 48 -145 46v416l-120 76l-1 -551q-50 -35 -105 -87q-232 -222 -165 -408.5t162 -274.5q56 -53 106 -68zM312 228q-23 26 -44 65 q-87 161 -70 291t74 146q20 6 41 5z" />
<glyph unicode="&#xa3;" horiz-adv-x="894" d="M241 413l-108 -2l-127 -154l31 -15q14 44 151 34h11l-92 -276l41 -9q104 57 276 22t309 -9l147 199l-31 7q-76 -82 -265.5 -47.5t-313.5 -2.5l37 120h155l173 152l-30 6q-31 -33 -254 -27h-4l23 73l170 1l174 151l-30 6q-31 -33 -273 -26q24 219 161 216.5t92 -129.5 l28 -8l128 141q-16 86 -75.5 109.5t-125 23t-147.5 -51t-126 -140.5l-36 -160l-98 -2l-127 -154l30 -15q15 44 152 34l-22 -67h-4z" />
<glyph unicode="&#xa5;" horiz-adv-x="835" d="M357 480q-47 0 -100 1l-114 -115l8 -11q17 16 211 20h2v-62h-15q-47 0 -100 1l-114 -115l8 -10q16 15 211 19h10q-9 -68 -164 -211l321 2l149 150l-26 16q-27 -58 -271 -39q67 41 106 83l74 1h110l107 117l-18 7q-14 -16 -199 -20h-21v63h29q52 0 111 -1l106 118l-18 6 q-14 -15 -199 -19h-29v65l296 390l-13 5l-237 -2l-147 -147l14 -15q47 38 208 25l-156 -218l-228 300q-64 111 -147 13l-106 -97l23 -20q55 47 82 29l237 -329h-1z" />
<glyph unicode="&#xa6;" horiz-adv-x="351" d="M274 1605l-1 -744h-185v636q12 111 243 336l29 -34q-86 -110 -86 -194zM271 695v-797q-34 -163 -229 -316l-35 33q87 68 79 176v902z" />
<glyph unicode="&#xa8;" horiz-adv-x="710" d="M382 1155q109 -19 115 -160l187 149q6 132 -120 178zM66 1159q109 -19 115 -160l187 149q6 132 -120 178z" />
<glyph unicode="&#xa9;" horiz-adv-x="745" d="M391 1398q83 0 161.5 -42.5t122.5 -121t44 -164.5q0 -85 -43 -163.5t-121 -121.5t-164 -43q-85 0 -163 43t-121.5 121.5t-43.5 163.5q0 86 44 164.5t123 121t161 42.5zM391 1344q-69 0 -134.5 -35.5t-102.5 -101.5t-37 -137t36.5 -136t101.5 -101.5t136 -36.5t136 36.5 t101.5 101.5t36.5 136t-37 137t-102.5 101.5t-134.5 35.5zM348.5 1248.5q-22.5 -13.5 -47.5 -31.5q-169 -120 -59 -265q32 -35 64 -50.5t76 -15.5t91.5 40t77.5 81l-15 12q-12 -14 -27 -29.5t-68.5 -31.5t-120 47t-43.5 145q44 58 112 51q61 -15 77 -68l76 56 q-1 38 -30.5 59.5t-58.5 27.5t-55.5 -4t-49 -23.5z" />
<glyph unicode="&#xaa;" horiz-adv-x="677" d="M116.5 1346.5q-55.5 -65.5 -78.5 -131.5t-7.5 -165.5t116.5 -192t162.5 -92.5t192.5 120q50 44 88.5 95.5t56.5 145t-31 208.5q-121 187 -309 165q-135 -87 -190.5 -152.5zM469.5 1246.5q61.5 -116.5 27 -241.5t-151 -82.5t-155.5 151.5t-25 204t128.5 90t176 -121.5z " />
<glyph unicode="&#xab;" horiz-adv-x="675" d="M391 171l-169 376l176 372l-65 131l-281 -573l209 -473zM631 171l-169 376l176 372l-65 131l-281 -573l209 -473z" />
<glyph unicode="&#xad;" horiz-adv-x="905" d="M780 615q-52 2 -88 -8h-68h-24h-20q-30 -1 -52 4q-54 -8 -88 -4l-16 4h-16l-8 -4q-28 3 -48 0l-8 4h-12l-100 4q-13 -8 -28 -12q-16 -19 -32 -32q-5 -6 -12 -8q-11 -20 -28 -36l-28 -24q-12 -20 -24 -32l-8 -16l-12 -8v-12l-8 -4l-4 -8l-40 -56l12 -20l32 4q31 49 64 76 h20h16h72h16h16h16h68h32h28h16h20h16h20h52h16h68h12h48l8 12l48 24q12 18 28 24q19 22 36 32l12 12q4 7 8 8l8 12l4 12l8 4l4 12q39 25 60 56v24h-32q-40 -31 -80 -44z" />
<glyph unicode="&#xae;" horiz-adv-x="710" d="M357 1394q82 0 159.5 -42t121 -120t43.5 -162t-43 -161t-120 -120t-161 -43t-161 43t-120 120t-43 161t43.5 162t121.5 120t159 42zM357 1340q-68 0 -133 -35t-101 -100t-36 -135t36 -134t100 -100t134 -36t134.5 36t100 100t35.5 134t-36 135t-101 100t-133 35z M166 1202l12 -4q11 21 36 23h78q-45 -11 -56 -35v-196v-37q-10 -33 -53 -71l3 -9q30 12 124 10l58 59l-8 6q-17 -11 -97 -9q34 22 46 45v97q30 0 46 -9t28 -27.5t23.5 -44.5t33.5 -62.5t56 -59.5l85 58l-9 7q-19 -17 -31 -6q-21 19 -33.5 43.5t-26.5 52.5t-37 47t-59 15 q52 8 79.5 43t11 85.5t-76.5 58.5l-37 2h-135zM383.5 1212q24.5 -13 28 -43t-11.5 -48.5t-91 -18.5v119q50 4 74.5 -9z" />
<glyph unicode="&#xaf;" horiz-adv-x="1326" d="M-2 1557l10 -15q33 34 1142 22l129 162l-21 9q-27 -35 -1121 -20z" />
<glyph unicode="&#xb0;" horiz-adv-x="519" d="M131.5 1250.5q-67.5 -61.5 -79.5 -157.5t60 -173.5t127 -83.5t96.5 28.5t95 119t44 159t-67 127t-102 61.5t-75.5 -5t-98.5 -75.5zM308 1186.5q58 -55.5 67 -122t-18 -96.5t-80.5 -24t-98 80.5t-36 129t58 71.5t107.5 -38.5z" />
<glyph unicode="&#xb1;" horiz-adv-x="801" d="M317 918v-171h-160l-126 -179l278 2v-344l171 172v172h165l142 180h-311l1 316zM562 191h-333q-158 -13 -222 -231l16 -13q49 76 143 72h396q113 21 186 247l-9 16q-81 -94 -177 -91z" />
<glyph unicode="&#xb2;" horiz-adv-x="376" d="M182 1326q-82 -23 -127.5 -72.5t-40 -102t40.5 -83.5l114 103l-8 9q-32 -14 -45.5 24t-0.5 61.5t49 20t74 -91.5t-6 -135l-204 -215l13 -14h275l67 113l-16 5l-21 -30l-201 1q154 156 192 233.5t-17.5 137t-137.5 36.5z" />
<glyph unicode="&#xb3;" horiz-adv-x="396" d="M116 1321l-114 -139l13 -14q45 47 84 35l169 2l-189 -237l15 -22q73 87 151 -2t-4 -201l-135 -152l19 -13q187 184 233.5 252.5t42.5 147t-167 137.5l146 193l-9 12z" />
<glyph unicode="&#xb4;" horiz-adv-x="410" d="M28 979l18 -25l259 159q98 83 58 205l-195 -91q13 -120 -140 -248z" />
<glyph unicode="&#xb6;" horiz-adv-x="1274" d="M1269 1286l-27 30l-610 -2q-188 5 -247 0.5t-141.5 -34.5t-148.5 -115.5t-75 -204t65.5 -213.5t197.5 -106t244 110q-34 -1172 82 -1245l162 142q-98 56 -42 1466l172 1l-1 -1583l59 63l7 1520l121 2z" />
<glyph unicode="&#xb7;" horiz-adv-x="465" d="M78 708q109 -19 115 -160l187 149q6 132 -120 178z" />
<glyph unicode="&#xb8;" horiz-adv-x="363" d="M33 -157l61 -10q43 35 78.5 27.5t53.5 -40.5t-19 -84t-98 -108l15 -9q130 93 165 130.5t42 75.5t-19.5 70.5t-65.5 43t-70.5 4t-55.5 -23.5l26 68l-52 5z" />
<glyph unicode="&#xb9;" horiz-adv-x="292" d="M27 1205l12 -20l61 36v-223q7 -78 -86 -159l9 -11h165l97 65l-10 13q-77 0 -148 -1q78 33 85 87v332l-8 10z" />
<glyph unicode="&#xba;" horiz-adv-x="734" d="M154 1298q-89 -122 -95.5 -208.5t85 -205.5t140.5 -125q90 75 146 122q22 -86 126 -128l157 191l-26 18l-35 -37q-40 -19 -66 13t-23 79v385q2 58 43 77l-267 -1q-96 -58 -185 -180zM441 1352l-28 -54v-30v-342q-71 -56 -173 93.5t7 332.5h194z" />
<glyph unicode="&#xbb;" horiz-adv-x="659" d="M29 883l169 -376l-176 -372l65 -131l281 573l-209 473zM289 883l169 -376l-176 -372l65 -131l281 573l-209 473z" />
<glyph unicode="&#xbc;" horiz-adv-x="826" d="M65 795l12 -20l61 36v-223q7 -78 -86 -159l9 -11h165l97 65l-10 13q-77 0 -148 -1q78 33 85 87v332l-8 10zM383 4l230 1q20 -223 -37 -241l11 -21q105 73 127 123l1 142h95q34 37 94 138l-28 13q-17 -48 -78 -46h-85l1 193l-100 -68v-122h-113q118 151 152 387l-138 -110 q31 -114 -132 -389zM111 -217l124 63l489 1276l-125 -80z" />
<glyph unicode="&#xbd;" horiz-adv-x="808" d="M71 -217l124 63l489 1276l-125 -80zM56 895l12 -20l61 36v-223q7 -78 -86 -159l9 -11h165l97 65l-10 13q-77 0 -148 -1q78 33 85 87v332l-8 10zM586 426q-82 -23 -127.5 -72.5t-40 -102t40.5 -83.5l114 103l-8 9q-32 -14 -45.5 24t-0.5 61.5t49 20t74 -91.5t-6 -135 l-204 -215l13 -14h275l67 113l-16 5l-21 -30l-201 1q154 156 192 233.5t-17.5 137t-137.5 36.5z" />
<glyph unicode="&#xbe;" horiz-adv-x="954" d="M443 4l230 1q20 -223 -37 -241l11 -21q105 73 127 123l1 142h95q34 37 94 138l-28 13q-17 -48 -78 -46h-85l1 193l-100 -68v-122h-113q118 151 152 387l-138 -110q31 -114 -132 -389zM115 895l-93 -131l11 -13q36 43 68 32l155 4l-166 -150l19 -20q93 84 152 -28 t-31 -237l-129 -143l27 -12q175 168 228 253.5t28.5 181.5t-137.5 109l139 141l-17 13h-254zM181 -217l124 63l489 1276l-125 -80z" />
<glyph unicode="&#xbf;" horiz-adv-x="823" d="M512 871l-1 236l-195 -148v-233zM320 350q-269 -173 -291 -390.5t162 -324t438 47.5t129 489l-209 -100q75 -173 31.5 -281.5t-158.5 -71.5t-159 193t-13 252.5t257 221.5l1 381l-188 -119v-298z" />
<glyph unicode="&#xc0;" horiz-adv-x="1261" d="M660 1442l137 154q-126 -22 -290 153l-117 -121q182 -197 270 -186zM555.5 1268.5q-23.5 -65.5 25.5 -143.5q-48 -46 -70 -110l-150 -353h-151l-124 -209l39 -27l40 55h130q-63 -169 -285 -482l299 1l155 232l-232 6q111 43 180 243h233l128 146l197 -485 q61 -136 185 -148l162 283l-41 27l-70 -106q-60 7 -87 74l-386 1005q-38 83 48 190l-14 27q-188 -160 -211.5 -225.5zM765 657h-296l154 375z" />
<glyph unicode="&#xc1;" horiz-adv-x="1288" d="M545.5 1293.5q-13.5 -90.5 35.5 -168.5q-48 -46 -70 -110l-150 -353h-151l-124 -209l39 -27l40 55h130q-63 -169 -285 -482l299 1l155 232l-232 6q111 43 180 243h233l128 146l197 -485q61 -136 185 -148l162 283l-41 27l-70 -106q-60 7 -87 74l-406 1055q-38 83 48 190 l-14 27q-188 -160 -201.5 -250.5zM765 657h-296l154 375zM428 1419l18 -25l259 159q98 83 58 205l-195 -91q13 -120 -140 -248z" />
<glyph unicode="&#xc2;" horiz-adv-x="1205" d="M450 1233q-13 -86 35 -161q-47 -43 -68 -104l-107 -337h-146l-120 -199l37 -26l39 52h126q-61 -161 -276 -459l290 1l150 221l-225 6q108 41 175 231h226l95 140l220 -463q59 -130 179 -141l157 270l-40 26l-48 -82q-58 6 -85 70l-422 1016q-37 79 29 155l-25 23 q-183 -153 -196 -239zM673 626h-258l110 358zM678 1508q-139 6 -183 153l-150 -121l-35 39l271 239q76 -160 208 -178z" />
<glyph unicode="&#xc3;" horiz-adv-x="1304" d="M448 1644l-94 -145l25 -32l53 71q77 60 182 -26t157 15l107 166l-22 32l-44 -67q-64 -55 -172.5 35t-191.5 -49zM545.5 1263.5q-23.5 -60.5 25.5 -138.5q-48 -46 -70 -110l-150 -353h-151l-124 -209l39 -27l40 55h130q-63 -169 -285 -482l299 1l155 232l-232 6 q111 43 180 243h233l128 146l197 -485q61 -136 185 -148l162 283l-41 27l-70 -106q-60 7 -87 74l-386 995q-38 83 48 190l-14 27q-188 -160 -211.5 -220.5zM755 657h-296l154 375z" />
<glyph unicode="&#xc4;" horiz-adv-x="1250" d="M346 1563q109 -19 115 -160l187 149q6 132 -120 178zM722 1559q109 -19 115 -160l187 149q6 132 -120 178zM535.5 1293.5q-13.5 -90.5 35.5 -168.5q-48 -46 -70 -110l-150 -353h-151l-124 -209l39 -27l40 55h130q-63 -169 -285 -482l299 1l155 232l-232 6q111 43 180 243 h233l128 146l197 -485q61 -136 185 -148l162 283l-41 27l-70 -106q-60 7 -87 74l-406 1055q-38 83 18 160l-14 27q-158 -130 -171.5 -220.5zM755 657h-296l154 375z" />
<glyph unicode="&#xc5;" horiz-adv-x="1276" d="M490.5 1700q-62.5 -40 -87 -96.5t5.5 -118t91.5 -81t101 2.5t96.5 66.5t60.5 99t-20 95.5t-75 60.5t-81 15.5t-92 -44zM617.5 1610q42.5 -61 42 -97.5t-34.5 -40t-66.5 30.5t-55.5 77t-11 69t47.5 24t78 -63zM535.5 1263.5q-13.5 -60.5 35.5 -138.5q-48 -46 -70 -110 l-150 -353h-151l-124 -209l39 -27l40 55h130q-63 -169 -285 -482l299 1l155 232l-232 6q111 43 180 243h233l128 146l197 -485q61 -136 185 -148l162 283l-41 27l-70 -106q-60 7 -87 74l-406 995q-38 83 8 140l-14 27q-148 -110 -161.5 -170.5zM755 657h-296l154 375z" />
<glyph unicode="&#xc6;" horiz-adv-x="1471" d="M750 668h-216l217 375zM652 -5l609 1l206 293l-44 3q-63 -82 -146 -81l-378 1l-73 7q71 33 103 108v307h187l173 174l-16 25l-338 1v297h323l180 168l-6 20l-650 1l-150 -310l-211 -353h-230l-124 -209l38 -27l40 55h203q-116 -169 -338 -481l360 1l224 293l-36 1 q-39 -69 -326 -57q152 43 234 243h160l128 146l-1 -456z" />
<glyph unicode="&#xc7;" horiz-adv-x="993" d="M681 -23l38 1l223 272l-30 23l-78 -82q-170 -25 -324 70.5t-241 267.5t-23 405q58 210 256 200q317 -25 260 -230l17 -8q192 175 197 225t-69.5 124t-149 83.5t-159 -1.5t-216.5 -128t-191 -199t-112 -198.5t-26 -287.5t233 -360q142 -130 276 -165l-59 -146l61 -9 q43 34 78.5 27t53.5 -40t-19 -84.5t-98 -107.5l15 -10q130 94 167.5 134t44.5 75.5t-25.5 66.5t-76 39t-67 5t-47.5 -20l23 60q34 -4 68 -2z" />
<glyph unicode="&#xc8;" horiz-adv-x="919" d="M533 1412l137 154q-126 -22 -290 153l-117 -121q182 -197 270 -186zM1 1048l34 -14q60 73 132 73l173 -1q-129 -52 -139 -162l-1 -142l-141 -202l15 -22l127 67l-2 -338q8 -72 -147 -312l670 1l205 293l-50 3q-63 -82 -146 -81l-484 1q76 22 135 165l1 257h117l173 174 l-16 25l-268 1v277l323 2l180 188l-6 20l-711 -2z" />
<glyph unicode="&#xc9;" horiz-adv-x="925" d="M1 1048l34 -14q60 73 132 73l173 -1q-129 -52 -139 -162l-1 -142l-141 -202l15 -22l127 67l-2 -338q8 -72 -147 -312l670 1l205 293l-50 3q-63 -82 -146 -81l-484 1q76 22 135 165l1 257h117l173 174l-16 25l-268 1v277l323 2l180 188l-6 20l-711 -2zM278 1419l18 -25 l259 159q98 83 58 205l-195 -91q13 -120 -140 -248z" />
<glyph unicode="&#xca;" horiz-adv-x="904" d="M618 1427q-139 -13 -202 127l-132 -141l-40 34l236 274q97 -148 230 -148zM1 1048l34 -14q60 73 132 73l173 -1q-129 -52 -139 -162l-1 -142l-141 -202l15 -22l127 67l-2 -338q8 -72 -147 -312l670 1l205 293l-50 3q-63 -82 -146 -81l-484 1q76 22 135 165l1 257h117 l173 174l-16 25l-268 1v277l323 2l180 188l-6 20l-711 -2z" />
<glyph unicode="&#xcb;" horiz-adv-x="932" d="M465 1505q109 -19 115 -160l187 149q6 132 -120 178zM149 1509q109 -19 115 -160l187 149q6 132 -120 178zM1 1048l34 -14q60 73 132 73l173 -1q-129 -52 -139 -162l-1 -142l-141 -202l15 -22l127 67l-2 -338q8 -72 -147 -312l670 1l205 293l-50 3q-63 -82 -146 -81 l-484 1q76 22 135 165l1 257h117l173 174l-16 25l-268 1v277l323 2l180 188l-6 20l-711 -2z" />
<glyph unicode="&#xcc;" horiz-adv-x="699" d="M63 1054l34 -14q32 71 102 74l203 -1q-145 -102 -150 -204l-1 -556l1 -125q-27 -108 -166 -261l25 -4q54 40 323 34l165 195l-24 18q-49 -36 -276 -26q70 74 153 226l9 708l3 2l150 189l-6 20l-371 -2zM435 1412l137 154q-126 -22 -290 153l-117 -121q182 -197 270 -186z " />
<glyph unicode="&#xcd;" horiz-adv-x="701" d="M215 1391l18 -25l259 159q98 83 58 205l-195 -91q13 -120 -140 -248zM93 1052l34 -14q32 70 102 73l183 -1q-145 -101 -150 -203l-1 -555l1 -124q-27 -108 -166 -261l25 -4q54 40 323 34l165 194l-24 19q-49 -36 -276 -27q70 23 153 124l9 808l3 2l150 189l-6 20l-351 -2 z" />
<glyph unicode="&#xce;" horiz-adv-x="693" d="M66 1048l34 -14q32 70 102 73l203 -1q-145 -101 -150 -202l-1 -553l1 -124q-27 -108 -166 -260l25 -4q54 40 323 33l165 194l-24 19q-49 -36 -276 -27q70 74 153 226l9 703l3 2l150 188l-6 20l-371 -2zM513 1408q-139 6 -183 153l-150 -121l-35 39l271 239 q76 -160 208 -178z" />
<glyph unicode="&#xcf;" horiz-adv-x="702" d="M75 1048l34 -14q32 70 102 73l203 -1q-145 -101 -150 -202l-1 -553l1 -124q-27 -108 -166 -260l25 -4q54 40 323 33l165 194l-24 19q-49 -36 -276 -27q70 74 153 226l9 703l3 2l150 188l-6 20l-371 -2zM367 1535q109 -19 115 -160l187 149q6 132 -120 178zM51 1539 q109 -19 115 -160l187 149q6 132 -120 178z" />
<glyph unicode="&#xd0;" horiz-adv-x="1205" d="M219 1329l230 6q321 15 508 -161q184 -177 213 -406q26 -223 -89 -371q-114 -145 -182 -213q-35 -34 -67.5 -64t-61.5 -57q-57 -51 -174 -79l-532 10l-9 24q197 218 187 291l2 305h-64q-96 4 -145 -73l-16 12q63 221 225 238l2 108q6 94 143 227l-252 -4l-61 -73l-35 14z M586 791q98 -5 182 92l8 -17q-73 -231 -190 -252h-174v-151q-17 -103 -144 -252l576 2q76 39 137 184q62 146 -14 330q-74 182 -219 295q-144 113 -273 111q-82 -9 -59 -105l-2 -237h172z" />
<glyph unicode="&#xd1;" horiz-adv-x="1156" d="M430 1604l-94 -145l25 -32l53 71q77 60 182 -26t157 15l107 166l-22 32l-44 -67q-64 -55 -172.5 35t-191.5 -49zM277.5 1341q-69.5 -16 -276.5 -238l32 -21q135 117 218 -3q-90 -113 -84 -162l1 -682q-33 -106 -169 -254l25 -4q53 40 314 23l161 190l-24 17 q-48 -35 -258 -16q81 33 121 111l-2 664l492 -802q-32 -73 -154 -188l26 -4q52 41 291 24l161 194l-24 18q-48 -36 -214 -13q67 41 87 112l2 823l3 2l176 188l-7 20l-371 -2l-168 -271l34 -15q31 70 102 73h182q-99 -42 -107 -101v-533q-500 866 -569.5 850z" />
<glyph unicode="&#xd2;" horiz-adv-x="993" d="M226.5 1094q-154.5 -163 -183 -419.5t130 -462.5t284.5 -222t228.5 75.5t226.5 316.5t102 424.5t-155.5 338t-235.5 161.5t-172.5 -13t-225 -199zM677 986q146 -145 165 -399t-69 -337t-225.5 -26.5t-254 269t-95 405t177 213t301.5 -124.5zM356 676q109 -19 115 -160 l187 149q6 132 -120 178zM643 1382l137 154q-126 -22 -290 153l-117 -121q182 -197 270 -186z" />
<glyph unicode="&#xd3;" horiz-adv-x="1065" d="M236.5 1094q-154.5 -163 -183 -419.5t130 -462.5t284.5 -222t228.5 75.5t226.5 316.5t102 424.5t-155.5 338t-235.5 161.5t-172.5 -13t-225 -199zM687 986q146 -145 165 -399t-69 -337t-225.5 -26.5t-254 269t-95 405t177 213t301.5 -124.5zM366 676q109 -19 115 -160 l187 149q6 132 -120 178zM348 1389l18 -25l259 159q98 83 58 205l-195 -91q13 -120 -140 -248z" />
<glyph unicode="&#xd4;" horiz-adv-x="1003" d="M226.5 1094q-154.5 -163 -183 -419.5t130 -462.5t284.5 -222t228.5 75.5t226.5 316.5t102 424.5t-155.5 338t-235.5 161.5t-172.5 -13t-225 -199zM677 986q146 -145 165 -399t-69 -337t-225.5 -26.5t-254 269t-95 405t177 213t301.5 -124.5zM356 676q109 -19 115 -160 l187 149q6 132 -120 178zM678 1378q-139 6 -183 153l-150 -121l-35 39l271 239q76 -160 208 -178z" />
<glyph unicode="&#xd5;" horiz-adv-x="1072" d="M384 1584l-94 -145l25 -32l53 71q77 60 182 -26t157 15l107 166l-22 32l-44 -67q-64 -55 -172.5 35t-191.5 -49zM236.5 1094q-154.5 -163 -183 -419.5t130 -462.5t284.5 -222t228.5 75.5t226.5 316.5t102 424.5t-155.5 338t-235.5 161.5t-172.5 -13t-225 -199zM687 986 q146 -145 165 -399t-69 -337t-225.5 -26.5t-254 269t-95 405t177 213t301.5 -124.5zM366 676q109 -19 115 -160l187 149q6 132 -120 178z" />
<glyph unicode="&#xd6;" horiz-adv-x="1030" d="M244.5 1094q-154.5 -163 -183 -419.5t130 -462.5t284.5 -222t228.5 75.5t226.5 316.5t102 424.5t-155.5 338t-235.5 161.5t-172.5 -13t-225 -199zM695 986q146 -145 165 -399t-69 -337t-225.5 -26.5t-254 269t-95 405t177 213t301.5 -124.5zM374 676q109 -19 115 -160 l187 149q6 132 -120 178zM593 1495q109 -19 115 -160l187 149q6 132 -120 178zM217 1499q109 -19 115 -160l187 149q6 132 -120 178z" />
<glyph unicode="&#xd7;" horiz-adv-x="708" d="M402 602l-195 237l-163 -154l215 -233l-226 -260l48 -46l225 253l210 -247l144 144l-208 255l220 240l-47 45z" />
<glyph unicode="&#xd8;" horiz-adv-x="1093" d="M578 1100q-89 49 -182 36q-156 -21 -177.5 -219t95.5 -417q46 -87 96 -149zM675 1029l-177 -766q34 -25 70 -40q137 -58 225 27.5t69 346.5t-165 411q-11 11 -22 21zM632 1339l50 220l138 97l-83 -361q66 -43 143 -125q133 -142 155 -347t-102 -436.5t-226.5 -325.5 t-228.5 -77q-21 2 -42 10l-70 -303l-124 -83l100 442q-70 57 -148 162q-159 211 -130.5 475t183 431.5t225.5 204.5q66 35 160 16z" />
<glyph unicode="&#xd9;" horiz-adv-x="1171" d="M779 235q49 -187 163 -237l196 365l-27 30q-126 -150 -134 96v612l45 1l140 173l-6 20l-371 -2l-164 -242l34 -14q28 67 92 67l175 -1q-121 -106 -145 -257v-491q-75 -191 -144 -162q-134 49 -238 172.5t-154 251.5t-50.5 227.5t148.5 272.5l154 179h-308l-8 -16 l-177 -237l24 -14q48 62 249 65q-335 -339 -191 -678q121 -269 381 -416q111 -22 218.5 103.5t97.5 131.5zM681 1372l137 154q-126 -22 -290 153l-117 -121q182 -197 270 -186z" />
<glyph unicode="&#xda;" horiz-adv-x="1167" d="M779 240q49 -191 163 -242l196 373l-27 31q-126 -154 -134 98v625l45 1l140 177l-6 20l-371 -2l-164 -247l34 -15q28 69 92 69l175 -1q-121 -108 -145 -263v-501q-75 -195 -144 -166q-134 50 -238 176.5t-154 257t-50.5 232t148.5 278.5l154 183h-308l-8 -16l-177 -242 l24 -15q48 64 249 67q-335 -347 -191 -693q121 -275 381 -425q111 -22 218.5 106t97.5 134zM488 1389l18 -25l259 159q98 83 58 205l-195 -91q13 -120 -140 -248z" />
<glyph unicode="&#xdb;" horiz-adv-x="1117" d="M773 235q49 -187 163 -237l196 365l-27 30q-126 -150 -134 96v612l45 1l140 173l-6 20l-371 -2l-164 -242l34 -14q28 67 92 67l175 -1q-121 -106 -145 -257v-491q-75 -191 -144 -162q-134 49 -238 172.5t-154 251.5t-50.5 227.5t148.5 272.5l154 179h-308l-8 -16 l-177 -237l24 -14q48 62 249 65q-335 -339 -191 -678q121 -269 381 -416q111 -22 218.5 103.5t97.5 131.5zM800 1358q-139 6 -183 153l-150 -121l-35 39l271 239q76 -160 208 -178z" />
<glyph unicode="&#xdc;" horiz-adv-x="1130" d="M729 1520q109 -19 115 -160l187 149q6 132 -120 178zM353 1524q109 -19 115 -160l187 149q6 132 -120 178zM848 235q49 -187 163 -237l196 365l-27 30q-126 -150 -134 96v612l45 1l140 173l-6 20l-371 -2l-164 -242l34 -14q28 67 92 67l175 -1q-121 -106 -145 -257v-491 q-75 -191 -144 -162q-134 49 -238 172.5t-154 251.5t-50.5 227.5t148.5 272.5l154 179h-308l-8 -16l-177 -237l24 -14q48 62 249 65q-335 -339 -191 -678q121 -269 381 -416q111 -22 218.5 103.5t97.5 131.5z" />
<glyph unicode="&#xdd;" horiz-adv-x="1010" d="M507 1113l17 -21q57 54 253 34l-190 -305l-277 422q-77 155 -178 18l-129 -137l28 -27q67 65 99 40l295 -473l1 -366q-7 -95 -199 -301l389 2l181 211l-31 23q-33 -81 -329 -55q179 127 193 266l-1 324l360 547l-16 7l-288 -2zM348 1389l18 -25l259 159q98 83 58 205 l-195 -91q13 -120 -140 -248z" />
<glyph unicode="&#xde;" horiz-adv-x="1045" d="M397 283q284 -69 449.5 112.5t164 400.5t-145.5 330t-371 91l-99 -105l-2 170q-3 120 -73 141l-211 -175l15 -24q93 42 92 -82v-853q-38 -187 -202 -288l14 -30q71 39 359 28l148 199q-59 -29 -279 -22q111 51 141 107zM389 492l2 544q185 42 313.5 -32t175.5 -269.5 t-113.5 -278.5t-337.5 90z" />
<glyph unicode="&#xdf;" horiz-adv-x="955" d="M367 1231q-29 83 -96 108l-205 -183l12 -32q79 33 84 -114v-163h-113l-42 -63h155v-626q2 -126 -140 -176l20 -34l255 112q75 8 89 89l1 999q31 71 112 49.5t102 -148.5t-66 -203l-77 -4l-41 -60q54 2 116 -25.5t119 -128t1 -429.5t-319 -568l24 -26q343 253 453.5 407.5 t123 352t-66.5 319t-273 148.5q201 90 207 261t-103 221t-189.5 16t-142.5 -99z" />
<glyph unicode="&#xe0;" horiz-adv-x="807" d="M143 674q-111 -153 -119 -261t106 -257t176 -157q113 94 183 153q27 -107 157 -160l197 239l-33 23l-43 -47q-51 -23 -83 17t-29 99v481q3 73 54 97l-334 -1q-121 -73 -232 -226zM502 742l-35 -68v-37v-429q-88 -69 -216 118t8 416h243zM484 1032l137 154 q-126 -22 -290 153l-117 -121q182 -197 270 -186z" />
<glyph unicode="&#xe1;" horiz-adv-x="843" d="M158 674q-111 -153 -119 -261t106 -257t176 -157q113 94 183 153q27 -107 157 -160l197 239l-33 23l-43 -47q-51 -23 -83 17t-29 99v481q3 73 54 97l-334 -1q-121 -73 -232 -226zM517 742l-35 -68v-37v-429q-88 -69 -216 118t8 416h243zM278 979l18 -25l259 159 q98 83 58 205l-195 -91q13 -120 -140 -248z" />
<glyph unicode="&#xe2;" horiz-adv-x="841" d="M146 674q-111 -153 -119 -261t106 -257t176 -157q113 94 183 153q27 -107 157 -160l197 239l-33 23l-43 -47q-51 -23 -83 17t-29 99v481q3 73 54 97l-334 -1q-121 -73 -232 -226zM505 742l-35 -68v-37v-429q-88 -69 -216 118t8 416h243zM562 1018q-139 6 -183 153 l-150 -121l-35 39l271 239q76 -160 208 -178z" />
<glyph unicode="&#xe3;" horiz-adv-x="830" d="M150 674q-111 -153 -119 -261t106 -257t176 -157q113 94 183 153q27 -107 157 -160l197 239l-33 23l-43 -47q-51 -23 -83 17t-29 99v481q3 73 54 97l-334 -1q-121 -73 -232 -226zM509 742l-35 -68v-37v-429q-88 -69 -216 118t8 416h243zM262 1154l-94 -145l25 -32l53 71 q77 60 182 -26t157 15l107 166l-22 32l-44 -67q-64 -55 -172.5 35t-191.5 -49z" />
<glyph unicode="&#xe4;" horiz-adv-x="819" d="M141 674q-111 -153 -119 -261t106 -257t176 -157q113 94 183 153q27 -107 157 -160l197 239l-33 23l-43 -47q-51 -23 -83 17t-29 99v481q3 73 54 97l-334 -1q-121 -73 -232 -226zM500 742l-35 -68v-37v-429q-88 -69 -216 118t8 416h243zM392 1155q109 -19 115 -160 l187 149q6 132 -120 178zM76 1159q109 -19 115 -160l187 149q6 132 -120 178z" />
<glyph unicode="&#xe5;" horiz-adv-x="851" d="M149 674q-111 -153 -119 -261t106 -257t176 -157q113 94 183 153q27 -107 157 -160l197 239l-33 23l-43 -47q-51 -23 -83 17t-29 99v481q3 73 54 97l-334 -1q-121 -73 -232 -226zM508 742l-35 -68v-37v-429q-88 -69 -216 118t8 416h243zM440.5 1250q-62.5 -40 -87 -96.5 t5.5 -118t91.5 -81t101 2.5t96.5 66.5t60.5 99t-20 95.5t-75 60.5t-81 15.5t-92 -44zM567.5 1160q42.5 -61 42 -97.5t-34.5 -40t-66.5 30.5t-55.5 77t-11 69t47.5 24t78 -63z" />
<glyph unicode="&#xe6;" horiz-adv-x="1168" d="M495 674l45 68h-263q-136 -229 -8 -416q126 -183 280 -101q-39 35 -54 79v370zM598 144q-11 13 -21 28q-140 -79 -253 -173q-62 8 -176 157t-106 257t119 261t232 226l390 -3q-42 -39 -57 -75q54 47 122 76q91 9 165 -45t57 -190l-82 -71l-251 -201l-29 42l73 56 q71 51 88.5 105.5t-24 109t-123 34.5t-66 -150t113 -277.5t192.5 -127.5q70 43 154 139l25 -22q-141 -185 -271 -278q-40 -34 -86 -29v-1q-2 1 -3 2q-50 7 -107 60q-41 39 -76 90z" />
<glyph unicode="&#xe7;" horiz-adv-x="685" d="M380 1q149 116 289 299l-25 22q-84 -96 -169 -124q-99 18 -182 149t-80 249t59.5 134t121.5 -22t79 -148l165 143q17 96 -57 150t-165 45q-93 -38 -206 -145q-232 -222 -165 -408.5t162 -274.5q53 -49 94 -66l-68 -161l61 -9q43 34 78.5 27t53.5 -40t-19 -84.5 t-98 -107.5l15 -10q130 94 167.5 134t44.5 75.5t-25.5 66.5t-76 39t-67 5t-47.5 -20l32 79z" />
<glyph unicode="&#xe8;" horiz-adv-x="675" d="M207 753q-232 -222 -165 -408.5t177.5 -290.5t195.5 -32q130 93 271 278l-25 22q-84 -96 -154 -139q-95 -20 -192.5 127.5t-113 277.5t66 150t123 -34.5t24 -109t-88.5 -105.5l-73 -56l29 -42l251 201l82 71q17 136 -57 190t-165 45q-93 -38 -186 -145zM463 1012l137 154 q-126 -22 -290 153l-117 -121q182 -197 270 -186z" />
<glyph unicode="&#xe9;" horiz-adv-x="692" d="M213 753q-232 -222 -165 -408.5t177.5 -290.5t195.5 -32q130 93 271 278l-25 22q-84 -96 -154 -139q-95 -20 -192.5 127.5t-113 277.5t66 150t123 -34.5t24 -109t-88.5 -105.5l-73 -56l29 -42l251 201l82 71q17 136 -57 190t-165 45q-93 -38 -186 -145zM278 979l18 -25 l259 159q98 83 58 205l-195 -91q13 -120 -140 -248z" />
<glyph unicode="&#xea;" horiz-adv-x="685" d="M212 753q-232 -222 -165 -408.5t177.5 -290.5t195.5 -32q130 93 271 278l-25 22q-84 -96 -154 -139q-95 -20 -192.5 127.5t-113 277.5t66 150t123 -34.5t24 -109t-88.5 -105.5l-73 -56l29 -42l251 201l82 71q17 136 -57 190t-165 45q-93 -38 -186 -145zM553 1018 q-139 6 -183 153l-150 -121l-35 39l271 239q76 -160 208 -178z" />
<glyph unicode="&#xeb;" horiz-adv-x="715" d="M223 753q-232 -222 -165 -408.5t177.5 -290.5t195.5 -32q130 93 271 278l-25 22q-84 -96 -154 -139q-95 -20 -192.5 127.5t-113 277.5t66 150t123 -34.5t24 -109t-88.5 -105.5l-73 -56l29 -42l251 201l82 71q17 136 -57 190t-165 45q-93 -38 -186 -145zM369 1155 q109 -19 115 -160l187 149q6 132 -120 178zM53 1159q109 -19 115 -160l187 149q6 132 -120 178z" />
<glyph unicode="&#xec;" horiz-adv-x="439" d="M-7 710l20 -37l60 44q53 1 41 -151v-406q12 -147 124 -166l197 192l-23 23l-56 -50q-55 3 -48 154l-1 423q-2 157 -68 176zM260 1032l137 154q-126 -22 -290 153l-117 -121q182 -197 270 -186z" />
<glyph unicode="&#xed;" horiz-adv-x="431" d="M-2 710l20 -37l60 44q53 1 41 -151v-406q12 -147 124 -166l197 192l-23 23l-56 -50q-55 3 -48 154l-1 423q-2 157 -68 176zM38 979l18 -25l259 159q98 83 58 205l-195 -91q13 -120 -140 -248z" />
<glyph unicode="&#xee;" horiz-adv-x="433" d="M-7 710l20 -37l60 44q53 1 41 -151v-406q12 -147 124 -166l197 192l-23 23l-56 -50q-55 3 -48 154l-1 423q-2 157 -68 176zM355 1018q-139 6 -183 153l-150 -121l-35 39l271 239q76 -160 208 -178z" />
<glyph unicode="&#xef;" horiz-adv-x="505" d="M66 710l20 -37l60 44q53 1 41 -151v-406q12 -147 124 -166l197 192l-23 23l-56 -50q-55 3 -48 154l-1 423q-2 157 -68 176zM203 1155q109 -19 115 -160l187 149q6 132 -120 178zM-33 1159q109 -19 115 -160l187 149q6 132 -120 178z" />
<glyph unicode="&#xf0;" horiz-adv-x="913" d="M236 681q-67 -68 -15 -240t170.5 -265t227.5 0.5t6 557.5l-176 -134q-73 153 -213 81zM277 1019l199 122q-34 102 -129 219l110 127q123 -107 195 -263q203 93 234 135l25 -12l-35 -102l-185 -99q145 -302 158 -568t-110.5 -399t-271 -169t-268.5 73.5t-145.5 244.5 t8 212.5t105.5 166t136 141.5t131.5 55.5t165.5 -82.5q-48 127 -87 250q-208 -128 -228 -161l-10 11z" />
<glyph unicode="&#xf1;" horiz-adv-x="896" d="M-4 713l24 -30l59 53q80 -4 72 -164v-410q3 -148 119 -168l189 186l-20 20l-58 -49q-40 17 -36 150v375l74 62q172 5 174 -205l-1 -367q-1 -146 112 -168l190 184l-20 26l-58 -54q-35 5 -34 118l1 397q-3 135 -86.5 191t-171.5 41l-189 -178q-21 160 -152 178zM241 1154 l-94 -145l25 -32l53 71q77 60 182 -26t157 15l107 166l-22 32l-44 -67q-64 -55 -172.5 35t-191.5 -49z" />
<glyph unicode="&#xf2;" horiz-adv-x="757" d="M167 750.5q-112 -112.5 -132.5 -289t100 -319t211 -153.5t159.5 52t158.5 218t73.5 293t-112.5 233.5t-170 111.5t-124.5 -9t-163 -137.5zM471 672.5q106 -113.5 122.5 -246.5t-33 -194t-147 -49.5t-178.5 163.5t-65.5 261t105.5 144t196 -78.5zM465 1032l137 154 q-126 -22 -290 153l-117 -121q182 -197 270 -186z" />
<glyph unicode="&#xf3;" horiz-adv-x="795" d="M176 750.5q-112 -112.5 -132.5 -289t100 -319t211 -153.5t159.5 52t158.5 218t73.5 293t-112.5 233.5t-170 111.5t-124.5 -9t-163 -137.5zM480 672.5q106 -113.5 122.5 -246.5t-33 -194t-147 -49.5t-178.5 163.5t-65.5 261t105.5 144t196 -78.5zM308 979l18 -25l259 159 q98 83 58 205l-195 -91q13 -120 -140 -248z" />
<glyph unicode="&#xf4;" horiz-adv-x="786" d="M178 750.5q-112 -112.5 -132.5 -289t100 -319t211 -153.5t159.5 52t158.5 218t73.5 293t-112.5 233.5t-170 111.5t-124.5 -9t-163 -137.5zM482 672.5q106 -113.5 122.5 -246.5t-33 -194t-147 -49.5t-178.5 163.5t-65.5 261t105.5 144t196 -78.5zM561 1018 q-139 6 -183 153l-150 -121l-35 39l271 239q76 -160 208 -178z" />
<glyph unicode="&#xf5;" horiz-adv-x="779" d="M182 750.5q-112 -112.5 -132.5 -289t100 -319t211 -153.5t159.5 52t158.5 218t73.5 293t-112.5 233.5t-170 111.5t-124.5 -9t-163 -137.5zM486 672.5q106 -113.5 122.5 -246.5t-33 -194t-147 -49.5t-178.5 163.5t-65.5 261t105.5 144t196 -78.5zM231 1154l-94 -145 l25 -32l53 71q77 60 182 -26t157 15l107 166l-22 32l-44 -67q-64 -55 -172.5 35t-191.5 -49z" />
<glyph unicode="&#xf6;" horiz-adv-x="771" d="M171 750.5q-112 -112.5 -132.5 -289t100 -319t211 -153.5t159.5 52t158.5 218t73.5 293t-112.5 233.5t-170 111.5t-124.5 -9t-163 -137.5zM475 672.5q106 -113.5 122.5 -246.5t-33 -194t-147 -49.5t-178.5 163.5t-65.5 261t105.5 144t196 -78.5zM399 1145 q109 -19 115 -160l187 149q6 132 -120 178zM83 1149q109 -19 115 -160l187 149q6 132 -120 178z" />
<glyph unicode="&#xf7;" horiz-adv-x="892" d="M672 563h-389q-185 -13 -252 -208l11 -16q54 80 167 72h462q132 21 218 227l-11 16q-66 -66 -206 -91zM265 221q109 -19 115 -160l187 149q6 132 -120 178zM275 751q109 -19 115 -160l187 149q6 132 -120 178z" />
<glyph unicode="&#xf8;" horiz-adv-x="791" d="M401 738q-61 34 -116 13q-90 -35 -105.5 -144t65.5 -261q21 -40 44 -70zM492 660l-115 -463q23 -12 47 -15q97 -11 146.5 50t33.5 194q-16 126 -112 234zM440 901l82 338l138 97l-118 -474q43 -28 92 -76q97 -96 113 -234t-73.5 -293t-158.5 -218t-159 -52q-15 2 -29 7 l-81 -325l-124 -83l112 463q-42 36 -90 91q-120 143 -99.5 319.5t132.5 289t163 137.5q42 21 100 13z" />
<glyph unicode="&#xf9;" horiz-adv-x="830" d="M864 183l-24 30l-59 -53q-80 4 -72 164v410q-3 148 -119 168l-189 -186l20 -20l58 49q48 -15 36 -150v-375l-93 -79q-157 12 -155 222l1 367q1 146 -112 168l-190 -184l20 -26l58 54q41 -5 34 -148l-1 -300q0 -150 83.5 -226t180.5 -81l183 186q21 -160 152 -178z M483 1032l137 154q-126 -22 -290 153l-117 -121q182 -197 270 -186z" />
<glyph unicode="&#xfa;" horiz-adv-x="893" d="M897 183l-24 30l-59 -53q-80 4 -72 164v410q-3 148 -119 168l-189 -186l20 -20l58 49q48 -15 36 -150v-375l-93 -79q-157 12 -155 222l1 367q1 146 -112 168l-190 -184l20 -26l58 54q41 -5 34 -148l-1 -300q0 -150 83.5 -226t180.5 -81l183 186q21 -160 152 -178z M308 979l18 -25l259 159q98 83 58 205l-195 -91q13 -120 -140 -248z" />
<glyph unicode="&#xfb;" horiz-adv-x="838" d="M869 183l-24 30l-59 -53q-80 4 -72 164v410q-3 148 -119 168l-189 -186l20 -20l58 49q48 -15 36 -150v-375l-93 -79q-157 12 -155 222l1 367q1 146 -112 168l-190 -184l20 -26l58 54q41 -5 34 -148l-1 -300q0 -150 83.5 -226t180.5 -81l183 186q21 -160 152 -178z M553 1018q-139 6 -183 153l-150 -121l-35 39l271 239q76 -160 208 -178z" />
<glyph unicode="&#xfc;" horiz-adv-x="824" d="M869 183l-24 30l-59 -53q-80 4 -72 164v410q-3 148 -119 168l-189 -186l20 -20l58 49q48 -15 36 -150v-375l-93 -79q-157 12 -155 222l1 367q1 146 -112 168l-190 -184l20 -26l58 54q41 -5 34 -148l-1 -300q0 -150 83.5 -226t180.5 -81l183 186q21 -160 152 -178z M388 1155q109 -19 115 -160l187 149q6 132 -120 178zM72 1159q109 -19 115 -160l187 149q6 132 -120 178z" />
<glyph unicode="&#xfd;" horiz-adv-x="869" d="M552.5 -293q228.5 175 262.5 396v637q-20 146 -124 168l-217 -214l23 -32l64 61q59 5 52 -142v-317q-53 -84 -147 -75t-111 179l1 368q1 146 -117 168l-227 -224l20 -37l62 59q60 30 62 -106v-321q15 -215 231 -287q137 77 235 189v-115q15 -277 -124 -276.5t-245 130.5 l-165 -186q236 -198 464.5 -23zM338 979l18 -25l259 159q98 83 58 205l-195 -91q13 -120 -140 -248z" />
<glyph unicode="&#xfe;" horiz-adv-x="955" d="M317 13q284 -79 449.5 107.5t164 390.5t-145.5 315t-371 91l-99 -105l1 360q-6 120 -76 141l-211 -175l15 -24q93 42 92 -82v-1043q-38 -277 -202 -378l14 -30q71 39 359 28l148 199q-59 -29 -279 -22q111 51 141 124v103zM309 222l2 514q185 42 313.5 -32t175.5 -254.5 t-113.5 -263.5t-337.5 90z" />
<glyph unicode="&#xff;" horiz-adv-x="851" d="M547.5 -293q228.5 175 262.5 396v637q-20 146 -124 168l-217 -214l23 -32l64 61q59 5 52 -142v-317q-53 -84 -147 -75t-111 179l1 368q1 146 -117 168l-227 -224l20 -37l62 59q60 30 62 -106v-321q15 -215 231 -287q137 77 235 189v-115q15 -277 -124 -276.5t-245 130.5 l-165 -186q236 -198 464.5 -23zM420 1155q109 -19 115 -160l187 149q6 132 -120 178zM104 1159q109 -19 115 -160l187 149q6 132 -120 178z" />
<glyph unicode="&#x152;" horiz-adv-x="1544" d="M538 856q126 -47 120 -184l-187 -154q-6 146 -115 166zM611 1064q-115 87 -235 70q-156 -21 -177.5 -220.5t95 -420t254 -279t225.5 27.5q16 16 29 38q2 16 1 27l2 341l-1 143q-42 126 -127 214q-19 19 -66 59zM721 87q-17 -20 -35 -35q-102 -95 -228 -78.5t-284.5 229.5 t-130 479t183 435t225 206t172.5 13q56 -13 121 -62l34 53l711 1l6 -20l-180 -189l-323 -2v-280h268l16 -25l-173 -175h-117v-82l-1 -177q-59 -144 -135 -166l484 -1q83 -1 146 81l50 -3l-205 -294h-657q29 50 52 92z" />
<glyph unicode="&#x153;" horiz-adv-x="1261" d="M610.5 426q16.5 -133 -33 -194t-147 -49.5t-178.5 163.5t-65.5 261t105.5 144t196 -78.5t122.5 -246.5zM819 54q110 -104 195 -32q130 93 271 278l-25 22q-84 -96 -154 -139q-95 -20 -192.5 127.5t-113 277.5t66 150t123 -34.5t24 -109t-88.5 -105.5l-73 -56l29 -42 l251 201l82 71q17 136 -57 190t-165 45q-93 -38 -186 -145q-47 -45 -81 -88q-29 67 -83 121q-97 95 -170.5 111t-124.5 -9t-163 -137.5t-132.5 -289t100 -319t211 -153.5t159.5 52q68 62 156 214q58 -124 141 -201z" />
<glyph unicode="&#x178;" horiz-adv-x="981" d="M500 1111l17 -22q57 54 253 35l-190 -305l-277 421q-77 155 -178 18l-129 -136l28 -28q67 65 99 40l295 -471l1 -365q-7 -96 -199 -301l389 2l181 210l-31 24q-33 -82 -329 -55q179 126 193 265l-1 323l360 546l-16 7l-288 -2zM502 1535q109 -19 115 -160l187 149 q6 132 -120 178zM186 1539q109 -19 115 -160l187 149q6 132 -120 178z" />
<glyph unicode="&#x2dc;" horiz-adv-x="589" d="M124 1144l-94 -145l25 -32l53 71q77 60 182 -26t157 15l107 166l-22 32l-44 -67q-64 -55 -172.5 35t-191.5 -49z" />
<glyph unicode="&#x2000;" horiz-adv-x="919" />
<glyph unicode="&#x2001;" horiz-adv-x="1838" />
<glyph unicode="&#x2002;" horiz-adv-x="919" />
<glyph unicode="&#x2003;" horiz-adv-x="1838" />
<glyph unicode="&#x2004;" horiz-adv-x="612" />
<glyph unicode="&#x2005;" horiz-adv-x="459" />
<glyph unicode="&#x2006;" horiz-adv-x="306" />
<glyph unicode="&#x2007;" horiz-adv-x="306" />
<glyph unicode="&#x2008;" horiz-adv-x="229" />
<glyph unicode="&#x2009;" horiz-adv-x="367" />
<glyph unicode="&#x200a;" horiz-adv-x="102" />
<glyph unicode="&#x2010;" d="M571 640h-333q-158 -13 -222 -231l16 -13q49 76 143 72h396q113 21 186 247l-9 16q-81 -94 -177 -91z" />
<glyph unicode="&#x2011;" d="M571 640h-333q-158 -13 -222 -231l16 -13q49 76 143 72h396q113 21 186 247l-9 16q-81 -94 -177 -91z" />
<glyph unicode="&#x2012;" d="M571 640h-333q-158 -13 -222 -231l16 -13q49 76 143 72h396q113 21 186 247l-9 16q-81 -94 -177 -91z" />
<glyph unicode="&#x2013;" horiz-adv-x="952" d="M23 572l10 -15q33 34 772 24l129 162l-21 9q-27 -35 -751 -22z" />
<glyph unicode="&#x2014;" horiz-adv-x="1451" d="M23 562l10 -15q33 34 1272 24l129 162l-21 9q-27 -35 -1251 -22z" />
<glyph unicode="&#x2018;" horiz-adv-x="278" d="M268 1094q-73 63 -70.5 128t48.5 101l-27 27q-124 -90 -159.5 -138.5t-35.5 -112.5t32 -100t71 -39z" />
<glyph unicode="&#x2019;" horiz-adv-x="246" d="M1 1217q73 -63 70.5 -128t-48.5 -101l27 -27q124 90 159.5 138.5t35.5 112.5t-32 100t-71 39z" />
<glyph unicode="&#x201c;" horiz-adv-x="534" d="M531 1094q-73 63 -70.5 128t48.5 101l-27 27q-124 -90 -159.5 -138.5t-35.5 -112.5t32 -100t71 -39zM271 1094q-73 63 -70.5 128t48.5 101l-27 27q-124 -90 -159.5 -138.5t-35.5 -112.5t32 -100t71 -39z" />
<glyph unicode="&#x201d;" horiz-adv-x="548" d="M309 1216q73 -63 70.5 -128t-48.5 -101l27 -27q124 90 159.5 138.5t35.5 112.5t-32 100t-71 39zM26 1217q73 -63 70.5 -128t-48.5 -101l27 -27q124 90 159.5 138.5t35.5 112.5t-32 100t-71 39z" />
<glyph unicode="&#x2022;" horiz-adv-x="512" d="M150 660h-104l115 -123h-91l-68 -73h168l-125 -133h104l68 72v-164l73 68v93l63 -67h106l-124 131h104l65 73h-160l114 121h-106l-62 -66v169l-73 -65v-107z" />
<glyph unicode="&#x2026;" horiz-adv-x="1009" d="M4 131q109 -19 115 -160l187 149q6 132 -120 178zM344 131q109 -19 115 -160l187 149q6 132 -120 178zM684 131q109 -19 115 -160l187 149q6 132 -120 178z" />
<glyph unicode="&#x202f;" horiz-adv-x="367" />
<glyph unicode="&#x2039;" horiz-adv-x="366" d="M341 171l-169 376l176 372l-65 131l-281 -573l209 -473z" />
<glyph unicode="&#x203a;" horiz-adv-x="422" d="M9 883l169 -376l-176 -372l65 -131l281 573l-209 473z" />
<glyph unicode="&#x205f;" horiz-adv-x="459" />
<glyph unicode="&#x20ac;" horiz-adv-x="902" d="M131 611l-112 -114l8 -11q13 13 140 18q-4 -19 -5 -38h-31l-112 -114l8 -11q13 12 135 17q7 -45 22 -85q41 -98 111.5 -169.5t172.5 -102.5q48 -13 94 -13q53 0 103 17q96 34 202 159l-34 30q-110 -110 -278 -23q-134 70 -193 191q78 1 174 0l104 117l-16 6 q-17 -19 -299 -20q-5 21 -9 43h220l104 116l-16 6q-17 -20 -314 -20q4 58 26 106q53 115 173 117t157.5 -50.5t9.5 -88.5l25 -12l145 109q19 43 -35 102t-173 62h-14q-110 0 -187 -39q-83 -41 -166 -158q-50 -70 -77 -148q-31 0 -63 1z" />
<glyph unicode="&#x2122;" horiz-adv-x="1214" d="M42 1289l10 -8q27 21 194 13q-26 -27 -46 -50l1 -405q18 -72 81 -85l83 73l-8 16q-37 -1 -46 72l2 380h103l88 82l-9 10h-384zM471 1260l12 -22q38 31 34 -64q-5 -297 1.5 -343t49.5 -80l107 103v16q-40 -8 -45.5 64.5t0.5 262.5q66 80 111.5 57t44.5 -167 q-2 -207 1.5 -256t44.5 -85l103 105l-3 17q-40 -12 -30 343q62 66 107 43t45 -167q-3 -207 1 -256t45 -85l105 109l-2 16q-27 -11 -35.5 61.5t-2.5 217.5q3 88 -11 141.5t-61 78t-87 -1.5t-66 -55t-43 -53q-25 85 -72 109.5t-87 -1.5t-66 -55t-40 -50q5 85 -35 120z" />
<glyph unicode="&#xe000;" horiz-adv-x="900" d="M0 900h900v-900h-900v900z" />
</font>
</defs>
</svg>
